HIERARCHY
ROOT Hips
{
	OFFSET 0.00000 0.00000 0.00000
	CHANNELS 6 Xposition Yposition Zposition Zrotation Yrotation Xrotation 
	JOINT LHipJoint
	{
		OFFSET 0 0 0
		CHANNELS 3 Zrotation Yrotation Xrotation
		JOINT LeftHip
		{
			OFFSET 1.36337 -1.57426 1.11036
			CHANNELS 3 Zrotation Yrotation Xrotation
			JOINT LeftKnee
			{
				OFFSET 2.38468 -6.55187 0.00000
				CHANNELS 3 Zrotation Yrotation Xrotation
				JOINT LeftAnkle
				{
					OFFSET 2.37166 -6.51609 0.00000
					CHANNELS 3 Zrotation Yrotation Xrotation
					JOINT LeftToe
					{
						OFFSET 0.29078 -0.79891 2.01393
						CHANNELS 3 Zrotation Yrotation Xrotation
						End Site
						{
							OFFSET 0.00000 -0.00000 1.07924
						}
					}
				}
			}
		}
	}
	JOINT RHipJoint
	{
		OFFSET 0 0 0
		CHANNELS 3 Zrotation Yrotation Xrotation
		JOINT RightHip
		{
			OFFSET -1.36349 -1.57426 1.11036
			CHANNELS 3 Zrotation Yrotation Xrotation
			JOINT RightKnee
			{
				OFFSET -2.29562 -6.30717 0.00000
				CHANNELS 3 Zrotation Yrotation Xrotation
				JOINT RightAnkle
				{
					OFFSET -2.40985 -6.62100 0.00000
					CHANNELS 3 Zrotation Yrotation Xrotation
					JOINT RightToe
					{
						OFFSET -0.23197 -0.63733 1.92232
						CHANNELS 3 Zrotation Yrotation Xrotation
						End Site
						{
							OFFSET -0.00000 -0.00000 1.01562
						}
					}
				}
			}
		}
	}
	JOINT lowerback
	{
		OFFSET 0 0 0
		CHANNELS 3 Zrotation Yrotation Xrotation
		JOINT Chest
		{
			OFFSET -0.08565 2.03602 -0.24562
			CHANNELS 3 Zrotation Yrotation Xrotation
			JOINT Chest2
			{
				OFFSET -0.00036 2.05693 0.00216
				CHANNELS 3 Zrotation Yrotation Xrotation
				JOINT lowerneck
				{
					OFFSET 0 0 0
					CHANNELS 3 Zrotation Yrotation Xrotation
					JOINT Neck
					{
						OFFSET -0.03664 1.69515 0.31789
						CHANNELS 3 Zrotation Yrotation Xrotation
						JOINT Head
						{
							OFFSET 0.00932 1.70181 -0.46013
							CHANNELS 3 Zrotation Yrotation Xrotation
							End Site
							{
								OFFSET 0.01243 1.77620 -0.19377
							}
						}
					}
				}
				JOINT LeftCollar
				{
					OFFSET 0 0 0
					CHANNELS 3 Zrotation Yrotation Xrotation
					JOINT LeftShoulder
					{
						OFFSET 3.74344 0.81315 -0.36647
CHANNELS 3 Zrotation Xrotation Yrotation
						JOINT LeftElbow
						{
OFFSET 0 -4.971850 -0.000000
CHANNELS 3 Zrotation Xrotation Yrotation
							JOINT LeftWrist
							{
OFFSET 0 -3.358110 0.000000
CHANNELS 3 Zrotation Xrotation Yrotation
								JOINT lhand
								{
									OFFSET 0 0 0
CHANNELS 3 Zrotation Xrotation Yrotation
									JOINT LFingers
									{
OFFSET 0 -0.622780 0.000000
CHANNELS 3 Zrotation Xrotation Yrotation
										End Site
										{
OFFSET 0 -0.502100 0.000000
										}
									}
								}
								JOINT LThumb
								{
OFFSET 0 0.000000 0.000000
CHANNELS 3 Zrotation Xrotation Yrotation
									End Site
									{
OFFSET 0 -0.509760 0.509760
									}
								}
							}
						}
					}
				}
				JOINT RightCollar
				{
					OFFSET 0 0 0
					CHANNELS 3 Zrotation Yrotation Xrotation
					JOINT RightShoulder
					{
						OFFSET -3.75385 0.50666 -0.06525
CHANNELS 3 Zrotation Xrotation Yrotation
						JOINT RightElbow
						{
OFFSET 0 -4.964930 -0.000000
CHANNELS 3 Zrotation Xrotation Yrotation
							JOINT RightWrist
							{
OFFSET 0 -3.349290 0.000000
CHANNELS 3 Zrotation Xrotation Yrotation
								JOINT rhand
								{
									OFFSET 0 0 0
CHANNELS 3 Zrotation Xrotation Yrotation
									JOINT RFingers
									{
OFFSET 0 -0.638040 0.000000
CHANNELS 3 Zrotation Xrotation Yrotation
										End Site
										{
OFFSET 0 -0.514410 0.000000
										}
									}
								}
								JOINT RThumb
								{
OFFSET 0 0.000000 0.000000
CHANNELS 3 Zrotation Xrotation Yrotation
									End Site
									{
OFFSET 0 -0.522260 0.522260
									}
								}
							}
						}
					}
				}
			}
		}
	}
}
MOTION
Frames: 6
Frame Time: 0.008333333333333333
-25.582513 14.973386 -3.874934 -555.488000 54.966779 -534.323863 0.000000 0.000000 0.000000 -12.734993 -0.092343 -51.288249 7.906993 16.050392 52.226838 0.830206 1.206894 -17.686934 1.687213 -8.181729 -23.267537 0.000000 0.000000 0.000000 -10.351240 11.567308 -52.717413 -9.262043 -16.973383 56.991922 -1.107020 -1.855220 -20.626240 -0.189267 2.798257 -7.717869 5.978776 -3.322874 24.318678 1.613129 -1.850785 7.189581 -1.161827 -0.540614 -5.733721 -13.191138 -12.762636 -26.171202 22.888074 -18.326074 16.424232 7.237015 -6.328086 13.675666 0.000000 0.000000 0.000000 -2.596506 -28.269567 -108.716212 40.675193 -48.464858 18.943148 28.297960 -8.307043 11.377643 0.000000 0.000000 0.000000 -7.125000 0.000000 0.000000 0.806287 17.107157 0.533493 0.000000 0.000000 0.000000 -12.610209 -8.616705 54.914014 -25.689993 -36.900958 -8.700846 4.718042 -74.063750 38.392965 0.000000 0.000000 0.000000 7.125000 0.000000 0.000000 47.108664 61.980678 -22.036765
-25.644361 14.932021 -4.303637 -555.875543 56.974996 -535.177553 0.000000 0.000000 0.000000 -12.543306 -1.071435 -50.668422 8.199947 16.263893 53.278946 0.844072 1.348220 -17.892896 1.132445 -6.756594 -18.997120 0.000000 0.000000 0.000000 -11.743426 12.371151 -51.583706 -8.999681 -16.807382 56.088811 -1.082434 -1.281463 -20.160781 -0.234017 3.113404 -8.594577 5.364756 -2.860531 24.624489 1.326964 -1.426596 7.193977 -1.242627 -0.346470 -5.848878 -13.601375 -12.779229 -26.666330 22.717206 -18.205104 16.852451 7.285690 -6.273849 13.933336 0.000000 0.000000 0.000000 -3.099821 -28.204635 -109.151385 40.004299 -48.071764 18.442593 29.410414 -9.136543 12.455951 0.000000 0.000000 0.000000 -7.125000 0.000000 0.000000 1.481330 15.754448 1.023948 0.000000 0.000000 0.000000 -12.728467 -8.408611 55.202748 -25.381595 -36.591317 -8.516396 3.292311 -73.216890 37.747751 0.000000 0.000000 0.000000 7.125000 0.000000 0.000000 44.946468 61.890526 -20.691491
-25.703374 14.898866 -4.779570 -556.774674 58.643867 -536.409983 0.000000 0.000000 0.000000 -14.384626 -0.933536 -49.796123 8.739335 16.636822 55.183760 1.142012 2.321350 -21.144566 1.252000 -7.091354 -19.987333 0.000000 0.000000 0.000000 -13.505514 13.083580 -50.036667 -8.695345 -16.607538 55.030265 -1.117278 -1.023579 -20.369942 -0.532102 4.666725 -12.961735 4.850144 -2.510942 24.522998 1.015381 -1.193691 6.865653 -1.354290 -0.271608 -6.142138 -13.522971 -12.641181 -26.786670 21.789025 -17.910363 17.513760 6.988861 -6.217258 13.998298 0.000000 0.000000 0.000000 -3.979512 -27.700956 -109.650958 38.473625 -47.138659 17.312112 28.969346 -8.565145 12.334185 0.000000 0.000000 0.000000 -7.125000 0.000000 0.000000 1.189394 15.949017 0.817121 0.000000 0.000000 0.000000 -12.503812 -7.543506 54.932535 -25.067333 -36.272696 -8.329694 2.478536 -73.040260 38.757569 0.000000 0.000000 0.000000 7.125000 0.000000 0.000000 45.519740 62.825690 -22.012177
-25.738713 14.914543 -5.222735 -555.937718 59.855245 -535.943367 0.000000 0.000000 0.000000 -15.026472 -0.668866 -49.326321 9.181213 16.922773 56.714546 1.465046 1.153193 -23.319963 0.787684 -5.663527 -15.811809 0.000000 0.000000 0.000000 -14.249053 14.643617 -48.182259 -8.291723 -16.329456 53.606418 -1.088667 -2.590364 -20.802854 -0.715435 5.405296 -15.068360 4.777422 -2.266387 23.856689 1.454969 -0.939939 6.716457 -0.914282 -0.165848 -5.947480 -13.608740 -12.591409 -27.010042 21.224971 -17.726786 18.003017 6.834690 -6.180387 14.119896 0.000000 0.000000 0.000000 -4.770710 -27.792994 -110.287312 36.946408 -46.152630 16.201531 27.679193 -7.534839 12.325013 0.000000 0.000000 0.000000 -7.125000 0.000000 0.000000 0.301134 16.120174 0.205778 0.000000 0.000000 0.000000 -12.484144 -7.133914 54.298619 -24.526784 -35.716267 -8.012025 -2.450731 -70.212730 36.114255 0.000000 0.000000 0.000000 7.125000 0.000000 0.000000 37.454592 62.111098 -16.885418
-25.743964 14.956741 -5.636661 -555.799937 60.638385 -535.915960 0.000000 0.000000 0.000000 -16.504136 0.089945 -48.694222 9.308681 17.002267 57.151558 1.687717 0.314131 -24.696500 0.715350 -5.403329 -15.063077 0.000000 0.000000 0.000000 -15.221888 16.232001 -46.510000 -8.021103 -16.134742 52.638556 -0.994458 -4.905676 -21.222308 -0.595539 4.939245 -13.735616 4.885462 -2.250149 22.591309 2.002983 -0.974208 6.595022 -0.389514 -0.194182 -5.431685 -13.968009 -12.841472 -27.148603 20.901285 -18.004370 18.801641 6.727427 -6.325583 14.527148 0.000000 0.000000 0.000000 -4.994156 -28.495573 -111.783065 36.145799 -45.613061 15.626637 26.818973 -7.056767 12.051004 0.000000 0.000000 0.000000 -7.125000 0.000000 0.000000 -0.272472 16.526528 -0.183965 0.000000 0.000000 0.000000 -13.038155 -6.304541 54.249854 -24.815644 -36.014497 -8.181446 -4.784160 -68.732261 38.390277 0.000000 0.000000 0.000000 7.125000 0.000000 0.000000 38.026678 64.518937 -19.279215
-25.756097 14.971257 -6.029802 -557.349571 61.552830 -537.013145 0.000000 0.000000 0.000000 -18.755261 0.312202 -48.321030 9.392336 17.053656 57.437209 1.921150 -0.031482 -26.238478 0.662284 -5.203991 -14.491364 0.000000 0.000000 0.000000 -16.587605 16.831434 -46.414299 -8.048618 -16.154905 52.737682 -0.781084 -7.492867 -21.050965 -0.607508 4.985817 -13.868810 5.223803 -2.449521 21.005436 2.362876 -1.289138 6.533310 -0.141014 -0.353780 -4.697566 -13.962642 -13.156572 -27.235858 20.364862 -18.337863 18.934868 6.406303 -6.527822 14.578497 0.000000 0.000000 0.000000 -4.794243 -29.363611 -112.311816 35.826400 -45.393268 15.398803 25.511732 -5.450173 11.676297 0.000000 0.000000 0.000000 -7.125000 0.000000 0.000000 -1.155938 17.083703 -0.765279 0.000000 0.000000 0.000000 -13.344549 -6.145306 53.617312 -25.394637 -36.604478 -8.524195 -7.180313 -66.043925 42.582493 0.000000 0.000000 0.000000 7.125000 0.000000 0.000000 42.366085 68.317767 -25.466343
